<?xml version="1.0" standalone="no"?><!DOCTYPE svg PUBLIC "-//W3C//DTD SVG 1.1//EN" "http://www.w3.org/Graphics/SVG/1.1/DTD/svg11.dtd"><svg t="1585014674627" class="icon" viewBox="0 0 1024 1024" version="1.1" xmlns="http://www.w3.org/2000/svg" p-id="1619" width="64" height="64" xmlns:xlink="http://www.w3.org/1999/xlink"><defs><style type="text/css"></style></defs><path d="M744.468 371.062c0.313 1.897 0.49 3.846 0.49 5.841V496.09c0 19.374-15.846 35.218-35.218 35.218H314.228c-19.372 0-35.218-15.845-35.218-35.218V376.902c0-1.994 0.179-3.943 0.49-5.841h464.968v0.001z m-261.232-31.246h248.486l43.342-51.471 25.85-135.019-17.58-1.357-56.815 56.816c-5.142-42.504-10.746-93.055-57.763-146.966H357.718c-47.033 53.91-52.635 104.462-57.779 146.966l-56.814-56.816-17.58 1.357 25.85 135.019 43.342 51.471h188.499zM378.589 555.469h25.035v97.725h-25.035v-97.725z m-61.767 0h25.021v97.725h-25.021v-97.725z m123.547 0h25.035v97.725h-25.035v-97.725z m61.78 0h25.02v97.725h-25.02v-97.725z m61.765 0h25.037v97.725h-25.037v-97.725z m61.767 0h25.035v97.725h-25.035v-97.725z m61.78 0h25.02v97.725h-25.02v-97.725zM314.228 905.067h387.641v47.9H314.228v-47.9z m0-228.683H709.74c19.372 0 35.218 15.846 35.218 35.212v119.195c0 19.374-15.846 35.218-35.218 35.218H314.228c-19.372 0-35.218-15.844-35.218-35.218V711.596c0-19.366 15.846-35.212 35.218-35.212z m222.399 38.933v59.601h146.284v-59.601H536.627z" fill="#333333" p-id="1620"></path></svg>